<svg width="200" height="200" viewBox="0 0 200 200" fill="none" xmlns="http://www.w3.org/2000/svg">
<ellipse cx="187" cy="187" rx="12.375" ry="12.375" fill="#94D6DA"/>
<circle cx="100" cy="100" r="100" fill="#FFDBB9"/>
<mask id="mask0" mask-type="alpha" maskUnits="userSpaceOnUse" x="0" y="0" width="200" height="200">
<circle cx="100" cy="100" r="100" fill="#FCF2DE"/>
</mask>
<g mask="url(#mask0)">
<path d="M103.221 198.857H45.4302C45.4767 197.18 45.5697 195.877 45.6626 195.132C45.8951 192.99 46.4995 189.963 47.1504 186.89C47.3364 185.958 47.5688 185.027 47.7548 184.142C48.1268 182.513 48.4987 180.976 48.8242 179.626C49.1496 178.322 49.4286 177.204 49.661 176.366C49.94 175.295 50.0795 174.643 50.0795 174.643L55.1937 175.062L58.9596 175.388L81.9735 177.344L83.7868 177.484L97.7346 178.648H97.9671L99.5013 178.788L100.478 178.881C100.478 178.881 100.71 180.417 101.036 182.559C101.408 185.074 101.965 188.426 102.384 191.313C102.57 192.477 102.895 195.178 103.221 198.857Z" fill="#001526"/>
<path d="M45.4768 102.143C45.4768 102.143 35.7133 106.939 33.4351 114.529C31.2035 122.119 25.1129 160.069 25.9033 162.91C30.1806 178.602 41.9433 186.471 45.6162 187.077C49.2892 187.682 54.9148 179.254 55.1008 175.575C55.2867 171.897 55.1008 150.943 55.1008 150.943L52.5437 131.944L45.4768 102.143Z" fill="#A6462B"/>
<path d="M85.8329 75.7412C85.6934 77.7901 85.3215 79.8389 84.7636 81.8412C84.0662 84.3556 79.2309 87.8014 78.3011 87.8945C75.1396 88.3601 68.2121 82.9121 66.0735 81.1427C63.9348 79.3732 63.0514 75.2756 63.0514 75.2756L60.6338 64.9849C60.6338 64.9849 64.2602 59.1178 67.3753 58.0003C70.4903 56.8827 79.2774 52.7385 79.2774 52.7385C79.4634 52.6454 81.1371 54.6476 81.3696 54.8805C82.067 55.7186 84.2987 56.6033 84.9961 57.4415C85.7399 58.3262 85.8794 61.3994 85.9259 63.4948C85.9724 64.1933 85.9724 64.8452 86.0189 65.5437C86.0189 65.9627 86.0654 66.3818 86.0654 66.8475C86.0654 69.5016 86.0189 72.1558 85.8329 75.7412Z" fill="#FF6B42"/>
<path d="M85.8325 98.1384C85.8325 98.1384 74.9067 113.179 74.5347 113.039C74.1628 112.946 57.6113 96.2758 57.6113 96.2758C57.6113 96.2758 62.865 92.8301 63.144 91.8057C63.4229 90.7813 63.5624 77.1379 63.5624 77.1379C63.5624 77.1379 70.7688 79.4662 71.0942 79.4662C71.4662 79.4662 78.9515 84.3088 78.9515 84.3088C78.9515 84.3088 78.9515 84.8676 78.905 85.7058C78.905 86.218 78.905 86.8699 78.905 87.5683C78.905 88.6859 78.905 89.9431 78.905 91.0606C78.905 91.5263 78.905 91.9919 78.905 92.3644C78.905 93.2026 78.9515 93.7614 78.998 93.9011C79.2305 94.4598 85.8325 98.1384 85.8325 98.1384Z" fill="#FF6B42"/>
<path d="M70.397 69.3151C70.1645 68.5701 69.3277 68.7563 69.2347 69.5014C69.1882 69.9204 69.1882 70.712 69.6066 70.9448C69.9786 71.1311 70.304 70.8517 70.397 70.5258C70.49 70.3395 70.49 69.7342 70.397 69.3151Z" fill="black"/>
<path d="M83.0897 69.5016C82.9037 68.8497 82.1133 68.9893 82.0203 69.6412C81.9738 70.0138 81.9738 70.7588 82.3923 70.9451C82.7177 71.1313 82.9967 70.8985 83.1362 70.5725C83.1827 70.4328 83.2292 69.9206 83.0897 69.5016Z" fill="black"/>
<path d="M66.3057 66.3348C65.7942 67.4524 67.9794 66.8936 68.3513 66.847C69.0952 66.7539 69.8391 66.7073 70.6295 66.6608C70.9549 66.6608 72.2567 66.847 72.2102 66.2417C71.9313 64.0532 67.003 64.7982 66.3057 66.3348Z" fill="#A6462B"/>
<path d="M86.0188 66.8005C85.4609 66.847 84.717 66.7074 84.531 66.7074C83.7871 66.6608 83.0432 66.6608 82.2529 66.6608C81.9274 66.6608 80.6256 66.9402 80.6721 66.3348C80.7651 64.4723 84.438 64.5188 85.9723 65.5432C85.9723 65.9623 85.9723 66.3814 86.0188 66.8005Z" fill="#A6462B"/>
<path d="M79.0451 73.6458C78.8126 72.5282 78.3942 71.4572 78.1152 70.3863C77.9757 69.8741 77.2319 70.1534 77.3713 70.6656C77.5573 71.4572 77.8363 72.2488 78.0687 73.087C78.4407 74.3908 78.2082 75.1824 77.6038 76.3465C77.3713 76.8121 78.1152 77.1381 78.3477 76.6724C78.8591 75.6946 79.231 74.7633 79.0451 73.6458Z" fill="#D94921"/>
<path d="M78.9051 92.411C77.9752 92.3644 76.7199 92.2247 75.3251 92.0385C72.3961 91.6194 69.374 89.0584 69.374 87.1027C69.374 86.1248 70.4434 86.0317 70.8618 86.1714C71.2337 86.3111 75.4181 88.034 76.7199 88.0805C78.0217 88.1271 78.9051 87.6614 78.9051 87.6614C78.9051 88.779 78.9051 90.0362 78.9051 91.1538C78.9051 91.5728 78.9051 91.9919 78.9051 92.411Z" fill="#D94921"/>
<path d="M63.2837 89.4309C63.2837 89.4309 72.2568 94.8789 73.8841 95.0652C75.5113 95.298 78.9053 92.3645 78.9053 92.3645C78.9053 92.3645 82.2528 95.6705 83.1826 96.1362C84.1125 96.6018 86.8091 98.2781 86.9485 98.4178C87.0415 98.5575 86.4836 113.831 74.5814 114.063C60.5871 114.343 56.4492 97.0674 56.8677 96.4621C57.2861 95.8568 60.2152 93.2492 61.0985 92.3179C61.9354 91.4797 63.2837 89.4309 63.2837 89.4309Z" fill="#FFC973"/>
<path d="M57.8904 95.3911C57.8904 95.3911 64.9108 110.711 76.0226 108.615C87.1344 106.52 85.9255 97.7659 85.9255 97.7659C85.9255 97.7659 97.1768 104.331 98.3856 105.496C99.5944 106.66 104.337 110.944 105.453 118.208C106.568 125.472 106.289 136.973 107.173 142.887C108.103 148.8 111.962 162.863 113.17 172.595C113.682 176.692 114.379 183.491 108.568 188.799C105.638 191.5 104.197 191.639 104.197 191.639C104.197 191.639 100.571 180.511 99.7339 179.998C98.897 179.486 95.7355 181.535 87.3668 181.535C78.9981 181.535 71.7917 179.905 66.0731 179.812C60.3545 179.719 52.8226 178.788 50.684 177.344C48.5453 175.901 45.8952 171.337 46.8251 167.845C47.7549 164.399 49.8006 158.067 49.6611 155.18C49.5216 152.293 43.2451 131.711 42.6407 127.846C42.0363 123.982 38.7818 106.613 42.1293 104.052C45.4768 101.491 57.8904 95.3911 57.8904 95.3911Z" fill="#FFC973"/>
<path d="M74.1633 97.2073C73.094 97.3936 70.8623 101.352 71.5597 103.261C72.1176 104.844 76.9994 104.471 77.1854 103.354C77.6038 101.119 75.2327 97.0211 74.1633 97.2073Z" fill="#001526"/>
<path d="M75.9763 103.773L72.9078 103.866C72.9078 103.866 69.3278 146.985 69.6068 148.801C69.8858 150.617 73.0938 156.67 73.8377 156.67C74.5815 156.67 79.7423 150.337 79.6493 148.707C79.6028 147.078 75.9763 103.773 75.9763 103.773Z" fill="#001526"/>
<path d="M65.5151 75.6013C65.4686 75.5548 65.4221 75.5082 65.3757 75.5082C65.2362 75.1822 65.0502 74.9029 64.8642 74.6235C64.9107 74.5303 64.9107 74.3907 64.8642 74.2044C64.6783 73.6456 64.3993 73.0403 64.3528 72.4349C64.3063 72.2021 64.3528 71.9693 64.3528 71.7365C64.3528 71.6434 64.3528 71.5502 64.3993 71.4571C64.4458 71.4105 64.4458 71.364 64.4458 71.3174C64.9572 71.1312 65.0037 70.293 64.4923 70.1533C64.5388 70.1067 64.5388 70.0602 64.5388 70.0602C65.1432 70.5724 65.9801 69.7342 65.4221 69.1754C65.3757 69.1289 65.3292 69.1289 65.2827 69.0823C65.2362 68.9426 65.1897 68.8029 65.0502 68.7098C64.3993 68.2442 63.7949 68.3839 63.33 68.8029C62.7256 69.1755 62.3536 69.9205 62.3071 70.6655C62.3071 70.9915 62.3071 71.3174 62.3536 71.5968C62.4466 73.2265 63.237 75.1357 64.4458 76.2532C64.4923 76.2998 64.5388 76.3464 64.5853 76.3929L64.6318 76.4395C65.2827 76.9517 66.1195 76.067 65.5151 75.6013Z" fill="#FF6B42"/>
<path d="M80.1607 78.721C80.0677 78.6279 79.9282 78.5813 79.6957 78.5813C78.1615 78.6279 76.5807 78.4882 75 78.4417C74.442 78.4417 73.5587 78.6279 74.0701 79.4195C74.907 80.6767 76.3018 81.3286 78.0685 81.0492C78.9054 80.9095 80.8581 79.3729 80.1607 78.721Z" fill="white"/>
<path d="M89.1799 54.8804C89.0869 53.4835 89.2264 52.1797 88.25 51.0622C87.6921 50.4103 87.1342 49.7118 86.4368 49.153C85.5069 48.408 84.4376 48.408 83.3218 48.1286C82.4384 47.8958 81.462 47.7095 80.5322 47.7095C78.626 47.4767 77.3707 45.8004 75.4645 45.4279C74.0232 45.1485 72.4889 45.0554 71.0477 45.4745C69.0485 46.1264 67.4212 47.7561 65.6545 48.8271C64.7711 49.3859 63.8413 49.4324 62.9114 49.7584C61.6561 50.224 60.8657 51.1553 60.4938 52.4125C60.1683 53.4369 59.7964 54.0888 59.0525 54.8804C58.6806 55.253 58.2621 55.672 58.0297 56.1842C57.5647 57.2552 57.8437 58.885 58.4016 59.9559C58.1226 61.3063 57.8437 62.7032 58.0297 64.1002C58.1226 65.0315 58.5411 65.8696 58.7735 66.7543C59.1455 67.965 58.913 69.1757 59.0525 70.4329C59.2385 72.1558 60.1683 73.8787 60.7262 75.4618C61.0982 76.5328 63.3763 77.8832 63.4693 77.6969C63.6088 77.1847 63.8878 76.6725 63.9342 76.1603C64.1667 73.9718 64.3527 71.7833 64.5387 69.5482C64.7246 67.22 64.7246 64.7986 64.6316 62.3773C65.236 61.8185 65.701 60.9804 66.3054 60.4682C67.6537 59.304 69.5599 57.8606 71.2801 57.3018C72.8609 56.7896 75.139 56.4171 76.7198 56.9293C77.8821 57.3018 79.0909 57.8606 80.2532 58.2796C81.7875 58.8384 81.555 60.2819 82.5314 61.3529C83.3218 62.2376 84.3911 63.3551 85.3674 64.007C86.0183 64.4727 86.8552 64.6589 87.5991 64.4261C88.4825 64.1933 88.8544 63.4483 89.3658 62.7964C89.4123 62.7032 89.5053 62.6101 89.5518 62.5635C89.6448 62.4239 89.7843 62.2842 89.8773 62.0979C91.5975 59.6766 89.3658 57.3483 89.1799 54.8804Z" fill="#A6462B"/>
<path d="M65.4223 67.2199C65.1899 66.7077 64.539 66.4283 63.8881 66.5214C62.9117 66.6611 62.0749 67.5458 61.7959 68.4771C61.238 70.3862 62.5398 73.9717 64.632 74.4839C64.9109 74.5305 65.1899 74.2976 65.0969 74.0182C65.0039 73.7854 64.9109 73.5992 64.7714 73.3663C64.9574 73.1801 65.0039 72.8541 64.8179 72.5748C64.7714 72.4816 64.6785 72.3885 64.632 72.2954C64.6785 72.2488 64.6785 72.2022 64.725 72.1557C64.9574 71.6435 65.0504 70.9916 64.9109 70.4794C65.0969 70.3862 65.2364 70.2465 65.2364 70.0137C65.2829 69.455 65.3294 68.8496 65.2829 68.2908C65.3294 68.1046 65.3759 67.9649 65.4223 67.8252C65.5153 67.8252 65.5618 67.7321 65.5618 67.6855C65.5618 67.6855 65.5618 67.6389 65.6083 67.6389C65.7478 67.5458 65.6083 67.2664 65.4223 67.2199Z" fill="#FF6B42"/>
<path d="M62.1679 196.716C62.1679 197.461 62.1678 198.159 62.1214 198.858H50.9166L48.1735 186.332L47.7086 184.143L46.3138 177.671L46.2208 177.159L44.4541 169.056L47.7086 146.566V146.519L50.3587 146.147L51.1956 146.007L54.4036 145.542L56.7282 145.216V145.262C56.7282 145.309 56.7282 145.355 56.7282 145.448C56.7282 145.495 56.7282 145.588 56.7282 145.635C56.5887 147.87 55.9843 158.347 56.7747 163.795C57.1001 166.123 57.9835 170.453 58.9599 175.343C59.2388 176.646 59.4713 178.043 59.7502 179.394C61.0055 186.285 62.2143 193.316 62.1679 196.716Z" fill="#0062AD"/>
<path d="M48.8242 106.52C50.1725 104.751 51.1024 102.982 50.219 100.746C49.7541 99.5824 48.9637 98.6511 48.1268 97.7664C46.918 96.3694 46.0346 94.9725 45.4767 93.1565C44.6864 90.5023 44.5004 87.6154 43.3381 85.0543C40.502 78.8147 32.9702 77.93 27.1586 80.1651C27.0656 80.2116 27.0191 80.3048 27.0191 80.3979C23.7181 81.7017 21.3934 85.7062 20.3241 88.7795C19.3942 91.4336 19.0688 94.2275 18.8828 97.0213C18.6504 99.9549 18.3249 103.075 19.3478 105.915C19.4407 106.148 19.6732 106.194 19.8592 106.148C20.1381 106.846 20.4171 107.545 20.8355 108.243C21.3005 109.035 21.8584 110.013 22.5558 110.618C24.462 113.086 26.7866 112.434 29.5297 111.27C31.1569 110.572 32.8307 109.873 34.5044 109.268C34.9229 109.128 35.3413 108.988 35.7597 108.895C35.6202 112.807 36.4106 116.811 39.7116 118.953C43.1521 121.235 49.0102 119.372 48.2198 114.576C47.9873 113.039 46.8715 111.643 46.9645 110.059C47.104 108.709 48.0803 107.591 48.8242 106.52Z" fill="#002B4D"/>
<path d="M41.2924 107.312C39.7581 110.618 36.1782 113.272 35.2948 113.365C32.3193 113.785 25.3453 110.665 23.3461 108.988C21.3005 107.312 20.5101 103.494 20.5101 103.494L18.2319 93.8085C18.2319 93.8085 21.6724 88.3139 24.6014 87.2429C27.5305 86.2185 35.8062 82.3071 35.8062 82.3071C35.8062 82.3071 40.7345 86.8704 42.0827 92.1787C42.1292 92.2719 42.1292 92.4116 42.1757 92.5047C42.2687 92.8772 42.3617 93.2963 42.4082 93.7154C43.1521 98.9771 42.0363 105.775 41.2924 107.312Z" fill="#D94921"/>
<path d="M38.5028 123.843C38.5028 123.843 31.6683 139.209 31.3429 139.116C30.971 139.023 17.8135 121.887 17.8135 121.887C17.8135 121.887 20.5101 120.117 20.789 119.14C21.0215 118.162 21.2075 105.31 21.2075 105.31C21.2075 105.31 27.9024 107.499 28.2279 107.499C28.5533 107.499 35.5273 112.108 35.5273 112.108C35.5273 112.108 35.5273 112.621 35.5273 113.412C35.5273 114.716 35.4808 116.811 35.4808 118.441C35.4808 119.838 35.5273 120.909 35.5738 121.095C35.6667 121.608 38.5028 123.843 38.5028 123.843Z" fill="#D94921"/>
<path d="M35.3881 118.441C33.6678 117.976 30.7853 116.905 29.437 116.02C27.6237 114.809 26.6474 112.248 27.4378 111.922C28.2746 111.596 28.1817 111.736 31.2502 112.667C34.3187 113.645 35.3881 113.366 35.3881 113.366C35.3881 114.716 35.3881 116.765 35.3881 118.441Z" fill="#87321E"/>
<path d="M28.1348 96.0434C27.9024 95.2983 27.0655 95.4846 26.9725 96.2296C26.926 96.6487 26.926 97.4403 27.3444 97.6731C27.7164 97.8594 28.0418 97.58 28.1348 97.254C28.2278 97.0212 28.2743 96.4625 28.1348 96.0434Z" fill="black"/>
<path d="M40.1766 96.0902C39.9906 95.4383 39.2002 95.578 39.1073 96.2299C39.0608 96.6024 39.0608 97.3474 39.4792 97.5337C39.8046 97.7199 40.0836 97.4871 40.2231 97.1612C40.2696 97.0215 40.2696 96.5093 40.1766 96.0902Z" fill="black"/>
<path d="M36.3177 104.844C36.1782 104.798 35.9922 104.798 35.8527 104.798C34.9694 104.751 34.0395 104.704 33.1562 104.704C32.4588 104.704 31.7149 104.518 31.0175 104.658C30.1806 104.844 30.2736 105.31 30.8315 105.915C31.2035 106.381 31.7149 106.707 32.2263 106.986C33.7141 107.685 36.1782 107.359 36.7826 105.543C36.9221 105.124 36.6431 104.937 36.3177 104.844Z" fill="white"/>
<path d="M29.669 93.1099C29.4366 92.5046 28.4602 92.458 27.9488 92.458C26.9725 92.458 25.3452 92.5977 24.7873 93.5756C24.5083 94.0878 25.3917 93.9481 25.6242 93.9481C26.2751 93.9015 26.926 93.8549 27.5769 93.8084C28.1348 93.8084 28.7857 93.8549 29.2971 93.6221C29.669 93.4359 29.762 93.2496 29.669 93.1099Z" fill="#002B4D"/>
<path d="M42.6408 93.8084C42.0828 93.7619 40.8275 93.6687 40.2231 93.6687C39.6652 93.6687 39.0143 93.7153 38.4564 93.4825C38.131 93.3428 38.038 93.1565 38.0845 92.9703C38.3169 92.3649 39.2933 92.3184 39.8047 92.3184C40.3161 92.3184 41.7109 92.4115 42.3618 92.5977C42.5013 92.9703 42.5478 93.3893 42.6408 93.8084Z" fill="#002B4D"/>
<path d="M35.5737 81.2826C35.5272 81.1895 35.4342 81.1895 35.3413 81.2826C35.2018 81.0963 34.9693 80.9566 34.7368 80.8635C33.993 80.5841 33.1561 81.0498 32.4122 81.0963C32.0868 81.0963 31.7148 81.0498 31.3894 81.0032C28.8788 79.6994 25.9032 79.1872 23.2531 79.5131C19.2082 79.9322 15.4888 82.2139 13.0712 85.4734C10.4676 89.0123 9.53774 93.8549 11.2115 97.9992C12.9782 102.376 17.3485 103.913 20.2776 107.312C20.51 107.591 20.882 107.452 21.0215 107.172C21.068 107.126 21.3469 105.962 21.3469 105.915C21.0215 103.54 20.1381 100.886 21.8118 97.9992C23.1601 95.6244 25.9032 94.6 28.1349 93.2496C30.32 91.9458 32.3192 90.3161 33.8535 88.2672C35.2483 86.4047 36.6431 83.6574 35.5737 81.2826Z" fill="#002B4D"/>
<path d="M19.7199 101.911C19.5339 101.492 18.9295 101.818 19.0225 102.19C19.162 102.889 19.3015 103.634 19.4409 104.332C19.3015 104.379 19.162 104.379 19.0225 104.425C18.79 104.472 18.5576 104.518 18.3716 104.565C13.7223 105.031 11.4907 109.873 7.30631 111.41C5.53958 112.062 3.67987 112.248 2.09911 113.366C0.657834 114.39 -0.4115 116.02 -0.829935 117.743C-1.29486 119.745 -0.550979 122.073 -1.7133 123.842C-3.0151 125.798 -5.75817 126.171 -7.66438 127.288C-10.6864 129.104 -12.7321 132.364 -13.1505 135.81C-13.569 139.395 -12.1277 142.887 -9.52409 145.309C-6.59504 148.009 -2.73614 148.754 1.12276 148.009C8.70109 146.519 14.9776 140.28 17.1628 132.923C17.8137 130.641 17.9997 128.313 18.1391 125.984C18.3251 122.632 18.883 119.745 19.9059 116.532C21.4866 111.922 22.0445 106.381 19.7199 101.911Z" fill="#002B4D"/>
<path d="M24.2297 96.1833C23.2069 94.1345 20.4173 95.6711 19.8129 97.2543C19.069 99.2566 20.5103 102.47 22.7884 102.656C23.1139 102.702 23.2998 102.283 23.1604 102.05C22.6489 101.166 21.7656 100.7 21.2542 99.8619C21.3936 99.8154 21.4866 99.6757 21.5331 99.536C21.7191 98.9772 21.9051 98.465 22.184 97.9528C22.6025 97.5337 22.9279 97.1146 23.3928 96.7421C23.4858 96.6955 23.5788 96.6024 23.6253 96.5093C23.7183 96.5093 23.8113 96.5559 23.9043 96.5559C24.1832 96.6956 24.3692 96.4162 24.2297 96.1833Z" fill="#D94921"/>
<path d="M21.1613 101.818C20.9753 101.538 20.7429 101.306 20.5569 101.026C20.1849 100.514 19.8595 100.002 19.4875 99.4896C19.4411 99.4431 19.4411 99.4431 19.3946 99.4431C19.3016 99.3034 19.2551 99.2103 19.1621 99.0706C19.0691 98.9309 18.8366 99.024 18.8831 99.1637C19.2086 99.9087 19.4875 100.654 19.9525 101.352C19.999 101.445 20.0455 101.538 20.092 101.632C20.1384 101.911 20.3244 102.051 20.4639 102.377C20.8358 103.122 20.9288 104.006 20.7429 104.798C20.5569 105.496 20.1384 106.102 19.5805 106.521C19.1621 106.847 18.7437 107.033 18.4647 107.545C18.3717 107.732 18.4647 107.871 18.6507 107.964C20.2314 108.57 21.6262 106.148 21.8122 104.891C21.9517 104.146 21.7657 102.656 21.1613 101.818Z" fill="#002B4D"/>
<path d="M19.0225 120.909C19.0225 120.909 23.2069 125.519 26.5079 129.337C29.8554 133.155 30.7387 135.344 31.2501 134.971C31.7151 134.645 36.5038 122.166 36.5038 122.166C36.5038 122.166 45.5234 125.472 48.6849 128.406C51.8465 131.339 56.5422 135.856 56.7282 143.819C56.9142 151.781 51.1026 156.996 50.7306 160.675C50.3122 164.353 50.7306 170.174 49.6148 172.828C48.499 175.482 46.1743 177.81 46.1743 177.81C46.1743 177.81 39.1539 179.859 28.972 179.533C18.7901 179.207 11.3977 178.835 9.35202 173.899C7.30633 169.01 8.51515 163.376 8.42216 159.092C8.32918 154.808 0.239422 131.852 2.56406 128.499C4.9352 125.193 19.0225 120.909 19.0225 120.909Z" fill="#0062AD"/>
<path d="M56.3093 198.858H3.67943C2.70308 198.858 1.72673 198.718 0.796875 198.485C1.68024 193.596 2.6101 188.986 3.77242 186.192C3.8654 185.913 4.00488 185.68 4.09787 185.447C5.1672 183.166 6.469 180.837 7.53833 178.975C8.79364 176.74 9.81648 175.156 9.90947 174.97C9.90947 174.97 18.8826 178.556 26.8329 179.347C29.204 179.58 31.9936 179.487 34.6901 179.208C39.7114 178.695 44.4536 177.624 46.2204 177.159C46.6388 177.066 46.8713 176.972 46.9178 176.972C46.9178 176.972 47.7081 177.997 48.7775 179.58C49.4749 180.651 50.3582 182.001 51.1951 183.491C52.4969 185.82 53.7522 188.52 54.4031 191.128C55.0075 193.503 55.6584 196.11 56.3093 198.858Z" fill="black"/>
<path d="M19.0688 184.748C18.9293 184.609 18.8364 184.516 18.7899 184.422C16.1398 181.722 13.4897 179.533 9.63077 179.207C8.00352 179.068 6.56224 179.068 5.12097 178.229C2.74983 176.832 0.704146 175.016 -1.66699 173.62C-1.71348 173.573 -1.75997 173.573 -1.80647 173.573C-2.03893 173.573 -2.31789 173.806 -2.17841 174.085C-1.99244 174.644 -3.15476 175.575 -3.48021 175.948C-4.08462 176.646 -4.73552 177.438 -4.92149 178.369C-5.01447 178.881 -4.96798 179.44 -4.64253 179.813C-4.8285 179.626 -5.71187 179.813 -5.85134 179.999C-6.22329 180.511 -5.57239 181.07 -5.20045 181.349C-2.78282 183.165 2.37789 184.329 2.84282 185.167C3.67969 186.797 4.8885 186.145 5.91134 186.611C6.98068 187.077 7.95703 187.729 8.60793 188.706C9.35182 189.87 9.95622 191.221 10.6071 192.478C10.8861 192.99 11.258 193.642 11.8624 193.689C12.6063 193.735 12.8388 192.99 12.7458 192.385C12.6063 191.361 12.0484 190.429 11.63 189.545C11.165 188.474 10.7001 187.403 10.2352 186.378C10.7466 186.658 11.1185 187.123 11.444 187.589C12.2344 188.66 12.9318 189.777 13.4897 190.988C13.8616 191.826 14.3266 193.549 15.5819 193.409C17.2091 193.223 13.3502 186.145 12.8388 185.261C13.3967 186.052 14.1406 186.658 14.745 187.403C15.3029 188.054 15.7213 188.753 16.1398 189.451C16.4652 190.103 16.6977 190.802 17.2556 191.314C18.046 192.059 19.1153 192.152 19.0223 190.802C18.9758 189.451 18.139 188.287 17.3486 187.216C17.3021 187.17 17.2556 187.077 17.2091 187.03C16.5117 186.052 15.8608 185.028 15.1169 184.097C15.7213 184.888 16.5117 185.447 17.1626 186.192C17.86 186.984 18.6969 189.079 20.0452 188.706C21.6259 188.194 19.9057 185.773 19.0688 184.748Z" fill="#D94921"/>
<path d="M4.00492 175.343C4.00492 175.343 5.12075 176.879 4.7953 178.276C4.46985 179.673 2.47066 183.864 0.936393 184.376C-0.59787 184.935 -2.64355 184.376 -2.64355 184.376L4.00492 175.343Z" fill="white"/>
<path d="M5.26071 126.403C5.26071 126.403 -4.03785 131.386 -9.84946 141.164C-15.6611 150.943 -23.3789 161.978 -22.8675 167.892C-22.356 173.806 -18.6831 175.482 -15.8935 178.742C-13.104 182.001 -5.29316 186.006 -2.22463 184.655C0.843895 183.305 4.79579 175.994 4.7028 172.921C4.60982 169.848 -1.01582 164.26 -0.504396 162.025C0.00702477 159.79 8.93365 148.754 9.30559 148.754C9.72403 148.754 5.26071 126.403 5.26071 126.403Z" fill="#0062AD"/>
<path d="M19.0227 120.909C19.0227 120.909 14.8384 122.539 14.6524 124.168C14.4664 125.798 17.256 125.798 19.3017 127.94C21.3009 130.082 21.8588 131.2 24.2764 133.202C27.159 135.577 31.2968 135.018 31.2968 135.018C31.2968 135.018 26.4616 128.313 24.0439 125.333C22.7886 123.796 19.0227 120.909 19.0227 120.909Z" fill="white"/>
<path d="M36.5506 122.213C36.5506 122.213 40.7349 123.47 41.2463 124.727C41.7578 125.984 38.5498 128.359 37.6664 129.709C36.8295 131.013 37.0155 132.131 35.7137 133.574C34.4119 135.018 31.2969 135.064 31.2969 135.064C31.2969 135.064 33.1566 129.197 33.9005 127.474C34.5979 125.705 36.5506 122.213 36.5506 122.213Z" fill="white"/>
<path d="M51.7067 141.863C51.7997 140.187 51.6602 138.417 51.1023 136.787C50.4514 134.971 49.3356 133.388 48.9172 131.479C48.8242 130.967 48.0338 131.2 48.1268 131.712C48.4522 133.249 49.1496 134.506 49.8005 135.903C50.6839 137.812 50.9628 139.768 50.8234 141.863C50.6374 145.728 49.3821 149.499 49.1031 153.411C48.6382 160.721 51.9392 168.917 47.4294 175.482C47.1504 175.901 47.8478 176.321 48.1268 175.901C52.5901 169.336 49.5216 161.42 49.8935 154.156C50.1725 150.012 51.5208 146.007 51.7067 141.863Z" fill="black"/>
<path d="M20.9288 106.148C20.4173 105.682 19.069 105.45 18.7436 105.217C18.4181 104.984 17.9067 104.518 17.5348 104.891C16.2795 106.055 20.1384 108.849 21.0682 106.707C21.1612 106.474 21.1147 106.288 20.9288 106.148Z" fill="#D42E00"/>
<path d="M35.3415 96.3228C35.202 95.8106 34.4116 96.0435 34.5511 96.5557C34.9695 98.3251 36.5968 100.7 35.2485 102.376C34.923 102.795 35.481 103.354 35.8064 102.935C37.5267 100.84 35.8994 98.4648 35.3415 96.3228Z" fill="#87321E"/>
<path d="M149.574 180.418L149.202 182.839L147.714 192.617L146.785 198.857H144.553H138.509C138.323 192.198 137.951 180.278 137.812 176.692C137.812 176.506 137.812 176.366 137.812 176.227C137.812 175.854 137.812 175.668 137.812 175.668L139.113 176.18L139.671 176.413L141.577 177.158L141.996 177.344L142.042 177.391L142.833 177.717L147.854 179.766L149.574 180.418Z" fill="#A6462B"/>
<path d="M150.69 130.78C150.643 131.059 150.225 137.299 149.714 146.146C149.621 147.962 149.528 149.871 149.388 151.874C149.249 154.388 149.109 157.042 148.97 159.789C148.877 161.652 148.784 163.561 148.644 165.517C148.412 169.847 148.179 174.224 147.947 178.462C147.9 178.927 147.9 179.346 147.854 179.812C147.807 180.743 147.761 181.675 147.714 182.606C147.575 185.167 147.435 187.681 147.296 190.056C147.11 193.269 146.97 196.296 146.831 198.903H144.599H136.231C136.091 197.413 136.184 195.923 136.324 194.573C136.696 191.127 136.696 188.007 136.463 183.63C136.417 182.513 136.37 180.092 136.324 176.972V176.32C136.277 173.014 136.277 169.056 136.324 165.098C136.324 165.051 136.324 165.051 136.324 165.005C136.37 157.787 136.556 150.756 136.928 148.288C137.765 143.073 138.276 128.917 139.16 124.773C139.857 121.607 142.275 118.953 143.344 117.882C143.669 117.556 143.855 117.416 143.855 117.416C143.855 117.416 144.088 117.835 144.506 118.58C146.32 121.653 150.876 129.988 150.69 130.78Z" fill="#001526"/>
<path d="M182.165 72.4347L180.399 82.8651C180.399 82.8651 179.794 87.0093 177.748 88.9185C177.377 89.2444 176.865 89.7566 176.261 90.2688C173.471 92.7367 168.589 96.6481 165.986 96.4153C165.288 96.3687 161.987 93.7612 160.035 91.4795C159.43 90.7345 158.919 90.036 158.733 89.4307C158.036 87.5215 157.896 86.1246 157.617 84.0758C157.199 80.5369 157.059 78.5812 156.966 75.8805C156.966 75.4614 156.92 75.0423 156.92 74.5767C156.873 73.9248 156.873 73.2263 156.873 72.5279C156.873 71.6431 156.827 70.6187 156.873 69.6409C156.873 69.5012 156.873 69.3615 156.873 69.1752C156.92 67.9646 157.059 66.8936 157.431 66.4279C158.082 65.5432 160.267 64.5654 160.918 63.6807C161.104 63.4013 162.638 61.3059 162.871 61.399C162.871 61.399 171.89 64.9845 175.052 65.8692C178.167 66.8005 182.165 72.4347 182.165 72.4347Z" fill="#A6462B"/>
<path d="M159.012 106.287C159.012 106.287 170.821 121.42 171.24 121.281C171.612 121.141 187.094 103.493 187.094 103.493C187.094 103.493 181.608 100.373 181.282 99.3956C180.957 98.3712 179.934 84.7744 179.934 84.7744C179.934 84.7744 172.914 87.5217 172.542 87.5683C172.17 87.5683 165.01 92.9232 165.01 92.9232C165.01 92.9232 165.056 93.4819 165.103 94.3201C165.149 94.8323 165.196 95.4842 165.242 96.1827C165.335 97.3002 165.428 98.5574 165.475 99.675C165.521 100.141 165.521 100.606 165.521 100.979C165.568 101.817 165.568 101.584 165.521 101.677C165.382 102.189 159.012 106.287 159.012 106.287Z" fill="#A6462B"/>
<path d="M172.635 77.3711C172.821 76.626 173.704 76.7192 173.797 77.4642C173.843 77.8833 173.936 78.6749 173.518 78.9542C173.193 79.1871 172.821 78.9077 172.681 78.5817C172.588 78.3955 172.542 77.8367 172.635 77.3711Z" fill="black"/>
<path d="M161.43 104.518C161.43 104.518 162.964 100.979 164.266 100.793C165.568 100.606 170.542 105.728 170.542 105.728C170.542 105.728 166.265 107.312 165.939 107.312C165.614 107.358 161.43 104.518 161.43 104.518Z" fill="white"/>
<path d="M170.542 105.775C170.542 105.775 178.958 98.6506 181.84 98.5575C183.096 98.5109 186.583 103.074 186.583 103.074C186.583 103.074 180.678 105.216 180.399 105.402C180.167 105.589 170.542 105.775 170.542 105.775Z" fill="white"/>
<path d="M159.384 78.1157C159.57 77.4638 160.361 77.557 160.454 78.2089C160.5 78.5814 160.593 79.3264 160.175 79.5592C159.849 79.7455 159.57 79.5127 159.431 79.2333C159.338 79.0005 159.291 78.4883 159.384 78.1157Z" fill="black"/>
<path d="M164.266 82.2131C164.405 81.0956 164.777 80.0246 164.963 78.9071C165.056 78.3949 165.846 78.6277 165.753 79.1399C165.614 79.978 165.382 80.7696 165.196 81.5612C164.917 82.9116 165.149 83.7032 165.846 84.8207C166.125 85.2864 165.382 85.6589 165.149 85.1932C164.591 84.2619 164.126 83.3772 164.266 82.2131Z" fill="#822F19"/>
<path d="M165.568 100.932C166.497 100.793 167.753 100.606 169.101 100.327C171.984 99.7218 174.866 96.9745 174.773 95.0188C174.727 94.0409 173.611 93.9943 173.239 94.1806C172.867 94.3203 168.822 96.3226 167.52 96.4157C166.218 96.5554 165.289 96.1363 165.289 96.1363C165.382 97.2539 165.475 98.5111 165.521 99.6286C165.521 100.094 165.568 100.56 165.568 100.932Z" fill="#822F19"/>
<path d="M162.825 74.6697C162.825 74.5766 162.732 74.4835 162.592 74.3438C162.174 74.0178 161.662 73.9247 161.151 73.8781C160.314 73.8316 159.524 73.8781 158.687 74.0644C158.268 74.1575 157.803 74.2972 157.432 74.53C157.199 74.6697 156.967 74.9491 157.06 75.1819C157.106 75.3216 157.246 75.4613 157.385 75.5079C157.524 75.5544 157.71 75.5544 157.85 75.5544C159.012 75.5079 160.175 75.4613 161.337 75.3682C161.662 75.3216 162.918 75.0888 162.825 74.6697Z" fill="black"/>
<path d="M170.31 74.2512C170.31 74.1581 170.403 74.0649 170.542 73.9253C170.914 73.5993 171.472 73.4596 171.984 73.3665C172.774 73.2268 173.611 73.2268 174.448 73.3665C174.913 73.4131 175.331 73.5527 175.75 73.739C175.982 73.8787 176.261 74.1115 176.168 74.3909C176.121 74.5306 175.982 74.6703 175.843 74.7168C175.703 74.7634 175.517 74.7634 175.378 74.81C174.215 74.8565 173.053 74.9031 171.844 74.8565C171.519 74.8565 170.263 74.7168 170.31 74.2512Z" fill="black"/>
<path d="M156.781 69.6412C156.781 69.6412 158.315 68.0114 161.058 68.0114C162.546 68.0114 163.522 69.5946 166.684 69.4549C170.078 69.2687 172.542 68.0114 173.89 68.0114C175.936 68.0114 177.191 69.5946 177.842 71.4106C178.539 73.2266 179.934 84.7746 179.934 84.7746C179.934 84.7746 181.98 78.954 182.724 75.1823C183.746 69.9206 182.863 63.9603 178.586 60.5611C174.308 57.1619 167.567 56.5566 163.987 58.326C160.407 60.0955 157.013 62.8893 156.781 66.3351C156.688 67.6855 156.781 69.6412 156.781 69.6412Z" fill="black"/>
<path d="M178.028 75.4614C177.702 75.6477 177.888 76.0668 178.214 76.0668C178.214 76.253 178.26 76.4393 178.353 76.6256C178.725 77.5103 179.097 77.8828 178.911 78.9538C178.725 79.9782 178.121 81.1423 178.446 82.2133C177.749 83.4705 177.051 84.5415 176.865 85.1003C176.772 85.4262 177.098 85.6125 177.377 85.4728C179.608 84.4018 181.189 80.537 181.143 78.1156C181.096 76.3927 179.934 74.437 178.028 75.4614Z" fill="#A6462B"/>
<path d="M178.585 81.5154C177.981 86.8237 176.726 90.6885 174.959 92.6442C172.169 95.7175 169.845 96.8816 165.939 96.3694C163.894 96.09 161.941 93.7152 159.988 91.4335C160.128 91.6198 160.918 91.6664 161.151 91.7129C162.08 91.8992 163.103 91.7595 163.94 91.2473C164.824 90.6885 165.428 89.7107 166.032 88.8725C166.265 88.5466 166.776 88.6397 167.102 88.7794C167.567 88.9656 167.753 89.1985 168.032 89.5244C170.124 91.8526 173.239 90.2229 174.866 88.2206C176.54 86.1252 177.33 83.1451 177.795 80.5375C178.167 78.349 178.213 76.1605 178.539 73.9719C178.539 73.8788 178.678 73.8788 178.725 73.9719C178.911 75.9742 178.864 79.094 178.585 81.5154Z" fill="black"/>
<path d="M169.52 87.4751C169.38 87.382 169.194 87.3354 168.915 87.3354C167.427 87.382 165.893 87.4286 164.405 87.4751C163.243 87.5217 163.29 88.1736 163.987 88.7789C164.87 89.524 166.405 89.7102 167.613 89.524C168.264 89.4308 169.101 89.1049 169.52 88.6392C169.985 88.2667 169.985 87.708 169.52 87.4751Z" fill="white"/>
<path d="M146.831 198.857H144.599H140.647C140.973 194.992 141.624 188.892 142.228 183.258C142.321 182.559 142.368 181.861 142.461 181.162C142.507 180.51 142.6 179.858 142.693 179.207C142.693 179.02 142.74 178.787 142.74 178.601C142.786 178.322 142.786 178.042 142.833 177.763C142.833 177.716 142.833 177.623 142.833 177.577C143.251 173.805 143.623 170.127 143.902 167.146C143.948 166.588 143.995 166.029 144.041 165.517C144.088 165.051 144.134 164.632 144.134 164.213C144.181 163.887 144.181 163.608 144.181 163.282C144.181 163.235 144.181 163.235 144.181 163.188C144.181 163.095 144.181 162.956 144.227 162.862C144.227 162.769 144.227 162.63 144.274 162.537C144.274 162.35 144.32 162.117 144.32 161.978C144.32 161.838 144.32 161.698 144.32 161.559C144.32 161.512 144.32 161.466 144.32 161.466C144.32 161.326 144.32 161.186 144.32 161.046C144.32 160.907 144.32 160.767 144.32 160.627C144.32 160.395 144.32 160.115 144.32 159.789C144.32 158.159 144.274 155.319 144.181 151.873C144.181 151.175 144.134 150.476 144.134 149.731C144.088 148.567 144.088 147.403 144.041 146.192C144.041 145.727 144.041 145.261 143.995 144.749C143.948 142.886 143.902 140.977 143.902 139.022C143.809 135.25 143.762 131.525 143.716 128.265C143.716 127.567 143.716 126.868 143.669 126.216C143.623 122.445 143.623 119.465 143.716 118.161C143.762 117.788 143.762 117.555 143.809 117.462C144.041 116.95 147.854 114.156 152.224 110.99C158.315 106.659 161.337 104.564 161.337 104.564C161.337 104.564 161.383 104.564 161.523 104.611C162.313 104.843 165.428 105.682 170.449 105.775C170.542 105.775 170.589 105.775 170.682 105.775C170.728 105.775 170.821 105.775 170.868 105.775C171.24 105.775 171.612 105.775 172.03 105.775C172.309 105.775 172.588 105.775 172.867 105.728C172.913 105.728 172.96 105.728 172.96 105.728H173.053C177.377 105.356 184.955 103.446 186.257 103.121C186.303 103.074 186.396 103.074 186.396 103.074H186.443C186.443 103.074 201.553 110.291 201.925 110.85C202.204 111.269 202.111 115.414 201.925 120.442C201.786 123.516 201.6 126.961 201.414 130.035C201.228 132.735 202.669 135.576 202.483 137.252C202.436 137.811 202.343 138.323 202.297 138.742C202.25 139.161 202.157 139.767 202.064 140.419C201.972 140.977 201.925 141.629 201.832 142.281C201.739 142.793 201.693 143.399 201.6 144.004C201.507 144.656 201.414 145.354 201.321 146.099C201.228 146.705 201.181 147.31 201.088 147.915C200.856 149.592 200.623 151.361 200.437 153.131C200.065 155.971 199.693 158.811 199.414 161.372C199.368 161.559 199.368 161.745 199.321 161.931C199.089 163.794 198.903 165.424 198.764 166.681C198.578 168.171 198.485 169.195 198.485 169.521C198.485 170.173 198.81 174.829 199.182 180.371C199.228 181.209 199.321 181.954 199.414 182.745C199.926 186.471 200.856 189.637 201.135 192.664C201.321 194.712 201.181 196.668 200.391 198.717C199.693 198.857 198.996 198.903 198.252 198.903H148.458" fill="#001526"/>
<path d="M218.197 180.045C217.872 180.837 216.803 181.349 216.198 181.861C215.361 182.513 214.524 183.211 213.734 183.863C212.572 184.748 211.456 185.679 210.247 186.517C209.689 186.937 209.085 187.309 208.48 187.682C207.458 188.333 206.388 188.892 205.319 189.498C205.272 189.544 205.179 189.591 205.133 189.591C204.529 189.963 203.738 190.289 203.273 190.848C202.483 191.826 201.832 192.291 201.321 192.524C200.298 192.99 199.647 192.617 198.903 193.083C197.694 193.828 197.601 194.806 196.997 196.11C196.578 196.948 196.299 197.879 195.974 198.81H193.091C193.231 198.438 193.324 198.019 193.463 197.646C193.835 196.296 194.207 194.946 194.579 193.595C194.021 194.014 193.649 194.62 193.324 195.272C192.719 196.389 192.161 197.6 191.743 198.857H189.279C189.93 196.296 190.999 193.362 191.278 192.757C190.767 193.781 189.976 194.666 189.372 195.644C188.814 196.482 188.442 197.413 188.07 198.345C188.024 198.531 187.931 198.717 187.884 198.857H184.955C185.188 197.786 185.699 196.808 186.21 195.877C186.257 195.784 186.303 195.691 186.35 195.597C187.001 194.294 187.652 192.99 188.349 191.686C187.745 192.71 186.908 193.549 186.257 194.527C185.559 195.597 184.909 198.252 183.235 198.019C181.189 197.786 182.816 194.573 183.653 193.223C183.746 193.036 183.886 192.897 183.932 192.757C186.582 189.078 189.372 186.005 193.928 184.888C195.834 184.422 197.555 184.143 199.135 182.932C199.228 182.839 199.368 182.746 199.507 182.653C199.786 182.42 200.065 182.187 200.298 181.954C201.646 180.79 202.901 179.486 204.203 178.276C205.877 176.692 207.551 175.156 209.085 173.386C209.457 172.967 209.782 172.548 210.154 172.083C210.945 171.151 211.781 170.267 212.944 170.034C213.037 170.034 213.083 170.08 213.13 170.127C213.92 170.22 214.989 171.477 215.361 171.943C216.152 173.06 216.617 174.364 217.035 175.621C217.268 176.04 217.5 176.46 217.639 176.972C217.918 177.81 218.616 179.16 218.197 180.045Z" fill="#A6462B"/>
<path d="M202.064 110.804C202.064 110.804 209.875 115.181 212.99 119.558C217.547 126.03 224.241 139.953 226.566 146.193C228.891 152.432 230.472 178.788 223.265 184.841C216.012 190.894 214.106 194.573 209.596 194.759C205.133 194.946 206.156 189.73 204.482 187.914C202.855 186.098 198.903 182.094 200.251 178.695C202.994 171.71 205.412 168.73 206.993 164.539C208.527 160.348 199.275 137.625 199.275 137.625L202.064 110.804Z" fill="#001526"/>
<path d="M201.228 147.869C200.995 149.546 200.763 151.315 200.577 153.084C193.091 152.898 185.652 152.572 178.167 152.107C166.869 151.408 155.572 151.874 144.274 151.827C144.274 151.129 144.227 150.43 144.227 149.685C144.181 148.521 144.181 147.357 144.134 146.146C155.479 146.193 166.823 145.727 178.121 146.426C186.024 146.891 193.417 147.031 201.228 147.869Z" fill="#002B4D"/>
<path d="M199.507 161.28C199.461 161.466 199.461 161.652 199.461 161.838C199.228 163.701 199.042 165.331 198.903 166.588C191.976 166.402 185.095 166.076 178.167 165.657C166.823 164.958 155.432 165.424 144.088 165.377C144.274 163.142 144.413 161.419 144.413 160.534C144.413 160.302 144.413 160.022 144.413 159.696C155.665 159.696 166.916 159.277 178.167 159.929C185.467 160.441 192.347 160.581 199.507 161.28Z" fill="#002B4D"/>
<path d="M137.812 129.617C137.161 126.171 136.975 122.539 136.696 119.093C136.371 115.461 135.999 111.876 135.859 108.244C135.534 101.259 135.766 94.2744 135.301 87.3363C134.929 81.8883 133.163 77.0456 128.467 73.9724C122.609 70.1076 113.543 69.9213 108.056 74.6709C105.081 77.2319 103.128 80.8639 102.012 84.5425C101.408 86.5913 100.99 88.7333 100.943 90.8752C100.85 93.6691 101.083 96.4629 100.897 99.2102C100.711 102.563 99.9667 105.869 99.1763 109.128C98.5719 111.689 98.014 114.25 97.7351 116.905C97.7351 116.998 97.6886 117.137 97.6886 117.231C97.5956 117.324 97.5491 117.417 97.5491 117.557C97.5491 117.696 97.5491 117.836 97.5956 117.929C97.4096 119.559 97.3166 121.328 98.1535 122.772C98.386 123.191 98.9439 122.865 98.8974 122.446C98.7579 121.608 98.6649 120.769 98.6649 119.931C99.2693 120.676 99.9667 121.375 100.478 121.98C102.059 123.75 103.5 125.612 105.546 126.776C110.102 129.384 115.914 130.501 121.121 130.734C125.398 130.92 131.07 131.246 134.604 128.406C135.394 127.801 135.906 127.056 136.278 126.311C136.417 127.568 136.696 128.825 137.207 129.896C137.347 130.315 137.905 130.036 137.812 129.617Z" fill="#F7A462"/>
<path d="M146.831 198.857H144.6H143.856L142.228 183.212L141.624 177.345V177.298L141.996 177.391H142.042L142.879 177.531L147.947 178.416L156.269 179.859L156.13 180.511L153.387 198.857H148.458" fill="#FF6B42"/>
<path d="M100.339 174.644L99.9203 176.879V176.926L99.5483 178.835L99.3158 179.953L95.6429 198.858H85.6934C85.182 193.27 84.5776 186.192 84.1592 181.489C84.0662 180.465 83.9732 179.58 83.9267 178.835C83.8802 178.323 83.8337 177.857 83.8337 177.485C83.7872 176.786 83.7407 176.414 83.7407 176.414L99.2693 174.737L100.153 174.644H100.339Z" fill="#FF6B42"/>
<path d="M108.057 84.7288C108.057 84.7288 108.754 97.3943 110.66 101.166C112.241 104.286 117.448 107.499 119.215 107.545C121.958 107.638 126.142 104.379 127.584 101.585C129.397 98.0462 130.234 86.0792 130.234 86.0792L127.212 79.2808L109.358 78.1167L108.057 84.7288Z" fill="#FF6B42"/>
<path d="M135.022 118.627C135.022 118.627 126.468 139.721 125.631 140.699C124.747 141.723 121.074 142.329 119.959 142.329C118.843 142.375 114.844 138.929 114.472 138.231C114.1 137.532 103.268 119.372 103.268 119.372C103.268 119.372 109.033 114.53 111.357 111.363C111.729 110.851 112.008 110.199 112.241 109.547C112.845 107.499 112.706 104.984 112.473 103.354C112.334 102.33 112.194 101.678 112.194 101.678L126.096 100.84C126.096 100.84 126.003 106.428 127.072 110.339C128.095 114.25 135.022 118.627 135.022 118.627Z" fill="#FF6B42"/>
<path d="M129.257 88.8261C129.35 88.7795 130.559 88.3138 131.628 88.7795C132.698 89.2917 132.326 92.0856 131.675 93.2497C130.419 95.3916 128.467 95.5313 128.467 95.5313L129.257 88.8261Z" fill="#FF6B42"/>
<path d="M112.659 91.1545C112.427 90.5026 111.636 90.6423 111.59 91.3407C111.543 91.7132 111.543 92.4583 111.962 92.6445C112.287 92.8308 112.566 92.5514 112.705 92.272C112.752 92.0392 112.752 91.527 112.659 91.1545Z" fill="black"/>
<path d="M126.514 91.2014C126.328 90.5961 125.584 90.7358 125.538 91.3411C125.491 91.7136 125.491 92.3655 125.863 92.5983C126.142 92.738 126.468 92.5052 126.561 92.2258C126.607 92.0396 126.654 91.5739 126.514 91.2014Z" fill="black"/>
<path d="M124.097 107.917C123.26 108.849 121.074 110.711 118.843 110.898C117.03 111.037 113.45 110.013 112.194 109.64C112.799 107.592 112.659 105.124 112.427 103.494C112.427 103.494 116.983 107.778 119.68 107.126C121.725 106.614 122.888 105.729 123.492 105.822C124.097 105.822 124.933 106.986 124.097 107.917Z" fill="#D94921"/>
<path d="M119.261 96.8819C118.285 95.3919 118.843 93.2965 119.168 91.6667C119.261 91.1545 118.471 90.9217 118.378 91.4339C118.006 93.2965 117.448 95.5316 118.564 97.2544C118.843 97.7201 119.54 97.301 119.261 96.8819Z" fill="#D94921"/>
<path d="M121.632 98.9773C120.423 100.234 118.378 100.095 116.983 99.3032C116.518 99.0238 116.1 99.7688 116.564 100.002C118.285 100.98 120.702 101.073 122.19 99.5826C122.562 99.1635 122.004 98.6047 121.632 98.9773Z" fill="#D94921"/>
<path d="M114.798 88.4072C114.798 88.1743 114.519 87.9415 114.054 87.8484C113.17 87.7087 112.241 87.8484 111.45 87.9881C110.985 88.0812 110.474 88.1278 110.055 88.3606C109.683 88.5469 109.219 89.0591 109.962 89.1056C110.799 89.1522 111.59 89.0125 112.38 88.9659C112.984 88.9194 113.682 89.0125 114.286 88.8262C114.612 88.7331 114.751 88.5934 114.798 88.4072Z" fill="#A6462B"/>
<path d="M122.981 88.4072C122.934 88.1744 123.213 87.895 123.678 87.7553C124.515 87.5225 125.445 87.6156 126.328 87.7553C126.793 87.8485 127.304 87.8485 127.769 88.0347C128.141 88.221 128.653 88.7332 127.909 88.8263C127.072 88.966 126.282 88.8263 125.445 88.8263C124.84 88.8263 124.143 88.966 123.539 88.8263C123.167 88.7332 123.027 88.5935 122.981 88.4072Z" fill="#A6462B"/>
<path d="M152.922 182.513C147.715 184.05 142.647 180.883 141.299 176.506C139.95 172.129 138.835 165.191 138.835 165.191C138.835 165.191 128.095 164.586 120.656 164.586C113.217 164.586 100.153 165.797 100.153 165.797C100.153 165.797 101.268 171.85 100.06 174.83C98.8508 177.81 98.6648 179.393 92.2953 180.837C89.4128 181.489 82.9502 179.766 80.4861 175.482C78.022 171.198 78.9519 164.4 80.8116 160.023C84.2985 151.874 86.1118 146.147 86.9486 141.863C87.7855 137.579 88.5759 128.173 91.7374 123.377C94.8989 118.58 100.618 117.556 103.268 116.625C105.918 115.693 110.102 112.946 110.102 112.946C110.102 112.946 110.892 114.669 111.822 115.693C112.752 116.718 116.518 119.884 117.122 123.051C117.727 126.217 116.611 128.964 117.913 131.944C119.215 134.878 120.935 137.951 120.981 138.044C121.167 137.812 123.678 134.086 122.981 130.92C122.237 127.661 123.074 124.82 125.631 121.654C128.188 118.487 127.862 112.201 127.862 112.201C127.862 112.201 128.467 112.853 134.278 115.507C134.883 115.787 135.441 116.019 135.952 116.159C136.138 116.206 136.278 116.252 136.463 116.299C140.694 117.556 142.74 116.206 146.878 120.676C151.76 125.984 151.992 141.071 152.968 145.355C153.991 149.639 157.432 162.304 159.059 167.706C160.779 173.107 158.129 180.977 152.922 182.513Z" fill="white"/>
<path d="M146.831 198.858H144.6H91.5513C92.0627 193.968 92.6206 190.336 93.0855 188.893C94.2479 185.54 95.7356 182.607 96.8979 180.465C97.2699 179.766 97.6418 179.161 97.9208 178.649C98.0138 178.462 98.1068 178.323 98.1997 178.183C98.7577 177.298 99.0831 176.833 99.0831 176.833C99.0831 176.833 99.0831 176.833 99.1296 176.833H99.827L113.496 176.6L136.324 176.227L137.812 176.181L139.067 176.134L141.159 176.088C141.159 176.088 141.485 176.507 141.996 177.298C142.182 177.624 142.414 177.997 142.693 178.416C142.972 178.928 143.298 179.487 143.623 180.139C144.832 182.514 146.273 185.82 147.25 189.824C147.25 189.824 147.25 189.824 147.25 189.871C147.389 190.476 147.575 191.407 147.715 192.478C147.947 194.108 148.18 196.25 148.412 198.718" fill="#002B4D"/>
<path d="M100.199 165.797C100.199 165.797 99.7807 168.777 99.5017 171.431C99.2228 174.086 99.1763 176.88 99.1763 176.88C99.1763 176.88 108.8 177.438 120.423 177.718C132.047 177.997 141.252 176.228 141.252 176.228C141.252 176.228 141.113 173.573 140.694 169.895C140.276 166.589 139.811 165.145 139.811 165.145C139.811 165.145 129.211 164.54 119.819 164.587C110.428 164.633 100.199 165.797 100.199 165.797Z" fill="#001526"/>
<path d="M99.6413 164.26C97.0841 161.699 95.2709 158.393 95.2244 154.715C95.2244 151.129 96.4797 147.87 96.1543 144.238C95.8288 140.699 95.4569 137.439 95.7823 133.854C96.1078 130.129 96.5727 126.404 96.1078 122.679C96.0613 122.166 95.2244 122.166 95.2709 122.679C95.7823 126.823 95.1314 130.92 94.8525 135.018C94.5735 138.883 95.4569 142.562 95.4104 146.426C95.3639 150.012 93.8761 153.458 94.62 157.043C95.2244 160.07 96.8982 162.677 99.0368 164.819C99.4553 165.238 100.013 164.633 99.6413 164.26Z" fill="#FFD7B3"/>
<path d="M144.414 151.968C144.181 149.826 144.274 147.777 144.507 145.588C144.693 143.633 144.832 141.63 144.646 139.628C144.46 137.626 144.042 135.67 143.949 133.668C143.856 129.617 144.972 125.612 144.972 121.515C144.972 121.002 144.181 121.002 144.135 121.515C144.088 125.147 143.205 128.685 143.112 132.317C143.019 136.043 144.042 139.628 143.809 143.307C143.716 145.169 143.391 147.032 143.391 148.894C143.391 150.757 143.67 152.619 143.902 154.482C144.135 156.345 144.367 158.3 143.995 160.116C143.577 162.212 142.182 163.562 140.88 165.145C140.555 165.564 141.113 166.123 141.438 165.704C143.484 163.283 144.972 161.42 144.972 158.114C145.018 156.112 144.646 154.063 144.414 151.968Z" fill="#FFD7B3"/>
<path d="M120.935 138.044C120.749 137.905 114.193 134.133 112.427 132.876C110.613 131.572 111.636 129.337 111.125 127.987C110.567 126.636 109.498 126.217 107.266 124.308C105.034 122.399 105.825 120.443 105.778 119.419C105.732 118.394 103.268 116.625 103.268 116.625C105.918 115.694 110.102 112.946 110.102 112.946C110.102 112.946 110.892 114.669 111.822 115.694C112.752 116.718 116.518 119.884 117.122 123.051C117.727 126.217 116.611 128.964 117.913 131.945C119.215 134.831 120.888 137.951 120.935 138.044Z" fill="#FFD7B3"/>
<path d="M135.999 116.159C135.208 116.671 134.278 117.277 133.999 117.835C133.442 118.906 134.325 120.862 133.349 123.004C132.791 124.261 130.001 125.938 129.211 127.241C128.374 128.499 129.955 131.525 127.955 133.667C126.049 135.763 121.307 137.905 120.981 138.044C121.167 137.812 123.678 134.086 122.981 130.92C122.237 127.661 123.074 124.82 125.631 121.654C128.188 118.487 127.862 112.201 127.862 112.201C127.862 112.201 128.467 112.853 134.278 115.507C134.883 115.74 135.487 115.973 135.999 116.159Z" fill="#FFD7B3"/>
<path d="M131.721 86.4519C131.628 85.474 131.21 84.7756 130.745 83.9374C129.722 82.168 129.071 80.0726 127.584 78.5825C125.584 76.5802 122.423 77.2787 119.819 77.3253C119.447 77.3253 119.029 77.3253 118.657 77.1856C117.541 76.7665 117.541 75.323 116.1 74.9505C114.845 74.6711 113.496 74.9971 112.287 75.2764C108.615 76.1612 105.453 79.6069 105.267 83.4252C105.221 84.2633 104.942 90.7358 107.22 89.3854L107.266 89.3388C110.056 88.4541 112.38 86.0793 114.101 83.8443C114.891 82.7733 116.193 81.4229 117.03 79.9329C120.005 81.0504 123.353 78.8619 126.328 79.8397C127.63 80.2588 128.188 81.8886 128.513 83.0527C128.792 84.0305 129.025 85.0549 129.211 86.0793C129.35 86.6847 129.35 88.1747 130.001 88.5473C130.234 88.6869 130.559 88.6404 130.792 88.5473C131.024 88.4541 131.954 88.1747 131.628 87.8022C131.768 87.616 131.768 87.3366 131.814 87.1038C131.721 86.9175 131.721 86.6847 131.721 86.4519Z" fill="#F7A462"/>
</g>
<g style="mix-blend-mode:multiply">
<circle cx="25" cy="25" r="25" fill="#FCF2DE"/>
</g>
</svg>
